# xmcd
#
# Track frame offsets:
# 150
# 18365
# 32464
# 48478
# 66192
# 80932
# 96441
# 111541
# 128921
# 144232
# 162486
# 175549
# 190045
# 204595
#
# Disc length: 2966 seconds
#
#
# Revision: 0
# Processed by: cddbd v1.5.1PL2 Copyright (c) Steve Scherf et al.
# Submitted via: FreeRIP 2.943 
#
DISCID=c30b940e
DTITLE=Flor da Serra - Vai Pegar
DYEAR=2005
DGENRE=Pop
TTITLE0=Vai pegar
TTITLE1=A dor de uma saudade
TTITLE2=Quem cai aqui, levanta ali
TTITLE3=Botequeiro
TTITLE4=Vem me ajudar
TTITLE5=Eu tiro meu chapéu
TTITLE6=Deixe o tapete
TTITLE7=Gringa italiana
TTITLE8=Diga que me adora
TTITLE9=Swing do tchê
TTITLE10=De bar em bar
TTITLE11=O amor é um jogo
TTITLE12=Boto pra correr
TTITLE13=Vai pegar (Play Back)
EXTD=
EXTT0=
EXTT1=
EXTT2=
EXTT3=
EXTT4=
EXTT5=
EXTT6=
EXTT7=
EXTT8=
EXTT9=
EXTT10=
EXTT11=
EXTT12=
EXTT13=
PLAYORDER=
